<svg version="1.1" xmlns="http://www.w3.org/2000/svg" xmlns:xlink="http://www.w3.org/1999/xlink" width="1564" height="990"><defs/><g><g transform="translate(-270,-278) scale(1,1)"><rect fill="#C0C0C0" stroke="none" x="1327" y="567" width="189.029296875" height="248" opacity="0.2"/></g><g transform="translate(-270,-278) scale(1,1)"><rect fill="#eaf8ff" stroke="none" x="1320" y="560" width="189.029296875" height="248"/></g><g transform="translate(-270,-278) scale(1,1)"><path fill="none" stroke="#353535" d="M 1320 560 L 1509.029296875 560 L 1509.029296875 808 L 1320 808 L 1320 560 Z Z" stroke-miterlimit="10"/></g><g transform="translate(-270,-278) scale(1,1)"><path fill="none" stroke="#353535" d="M 1320 585 L 1509.029296875 585" stroke-miterlimit="10"/></g><g transform="translate(-270,-278) scale(1,1)"><path fill="none" stroke="#353535" d="M 1320 728 L 1509.029296875 728" stroke-miterlimit="10"/></g><g transform="translate(-270,-278) scale(1,1)"><g><path fill="none" stroke="none"/><text fill="#000000" stroke="none" font-family="Roboto" font-size="13px" font-style="normal" font-weight="bold" text-decoration="none" x="1390.33642578125" y="577.5">Persona</text></g></g><g transform="translate(-270,-278) scale(1,1)"><g><path fill="none" stroke="none"/><text fill="#000000" stroke="none" font-family="Roboto" font-size="13px" font-style="normal" font-weight="normal" text-decoration="none" x="1325" y="601">+id: String</text></g></g><g transform="translate(-270,-278) scale(1,1)"><g><path fill="none" stroke="none"/><text fill="#000000" stroke="none" font-family="Roboto" font-size="13px" font-style="normal" font-weight="normal" text-decoration="none" x="1325" y="616">+apellido: String</text></g></g><g transform="translate(-270,-278) scale(1,1)"><g><path fill="none" stroke="none"/><text fill="#000000" stroke="none" font-family="Roboto" font-size="13px" font-style="normal" font-weight="normal" text-decoration="none" x="1325" y="631">+nombre: String</text></g></g><g transform="translate(-270,-278) scale(1,1)"><g><path fill="none" stroke="none"/><text fill="#000000" stroke="none" font-family="Roboto" font-size="13px" font-style="normal" font-weight="normal" text-decoration="none" x="1325" y="646">+sexo: String</text></g></g><g transform="translate(-270,-278) scale(1,1)"><g><path fill="none" stroke="none"/><text fill="#000000" stroke="none" font-family="Roboto" font-size="13px" font-style="normal" font-weight="normal" text-decoration="none" x="1325" y="661">+email: String</text></g></g><g transform="translate(-270,-278) scale(1,1)"><g><path fill="none" stroke="none"/><text fill="#000000" stroke="none" font-family="Roboto" font-size="13px" font-style="normal" font-weight="normal" text-decoration="none" x="1325" y="676">+telefono: String</text></g></g><g transform="translate(-270,-278) scale(1,1)"><g><path fill="none" stroke="none"/><text fill="#000000" stroke="none" font-family="Roboto" font-size="13px" font-style="normal" font-weight="normal" text-decoration="none" x="1325" y="691">+direccion: String</text></g></g><g transform="translate(-270,-278) scale(1,1)"><g><path fill="none" stroke="none"/><text fill="#000000" stroke="none" font-family="Roboto" font-size="13px" font-style="normal" font-weight="normal" text-decoration="none" x="1325" y="706">+noDocumento: String</text></g></g><g transform="translate(-270,-278) scale(1,1)"><g><path fill="none" stroke="none"/><text fill="#000000" stroke="none" font-family="Roboto" font-size="13px" font-style="normal" font-weight="normal" text-decoration="none" x="1325" y="721">+FechaNacimiento: String</text></g></g><g transform="translate(-270,-278) scale(1,1)"><rect fill="#C0C0C0" stroke="none" x="847" y="599" width="336" height="191" opacity="0.2"/></g><g transform="translate(-270,-278) scale(1,1)"><rect fill="#eaf8ff" stroke="none" x="840" y="592" width="336" height="191"/></g><g transform="translate(-270,-278) scale(1,1)"><path fill="none" stroke="#353535" d="M 840 592 L 1176 592 L 1176 783 L 840 783 L 840 592 Z Z" stroke-miterlimit="10"/></g><g transform="translate(-270,-278) scale(1,1)"><path fill="none" stroke="#353535" d="M 840 617 L 1176 617" stroke-miterlimit="10"/></g><g transform="translate(-270,-278) scale(1,1)"><path fill="none" stroke="#353535" d="M 840 640 L 1176 640" stroke-miterlimit="10"/></g><g transform="translate(-270,-278) scale(1,1)"><g><path fill="none" stroke="none"/><text fill="#000000" stroke="none" font-family="Roboto" font-size="13px" font-style="normal" font-weight="bold" text-decoration="none" x="987.436767578125" y="610">Cliente</text></g></g><g transform="translate(-270,-278) scale(1,1)"><g><path fill="none" stroke="none"/><text fill="#000000" stroke="none" font-family="Roboto" font-size="13px" font-style="normal" font-weight="normal" text-decoration="none" x="845" y="633">+fechaRegistro: String</text></g></g><g transform="translate(-270,-278) scale(1,1)"><g><path fill="none" stroke="none"/><text fill="#000000" stroke="none" font-family="Roboto" font-size="13px" font-style="normal" font-weight="normal" text-decoration="none" x="845" y="656">+calcEdad(id)</text></g></g><g transform="translate(-270,-278) scale(1,1)"><g><path fill="none" stroke="none"/><text fill="#000000" stroke="none" font-family="Roboto" font-size="13px" font-style="normal" font-weight="normal" text-decoration="none" x="845" y="671">+consPorSexo(sex)</text></g></g><g transform="translate(-270,-278) scale(1,1)"><g><path fill="none" stroke="none"/><text fill="#000000" stroke="none" font-family="Roboto" font-size="13px" font-style="normal" font-weight="normal" text-decoration="none" x="845" y="686">+consClientes()</text></g></g><g transform="translate(-270,-278) scale(1,1)"><g><path fill="none" stroke="none"/><text fill="#000000" stroke="none" font-family="Roboto" font-size="13px" font-style="normal" font-weight="normal" text-decoration="none" x="845" y="701">+consPorId(id)</text></g></g><g transform="translate(-270,-278) scale(1,1)"><g><path fill="none" stroke="none"/><text fill="#000000" stroke="none" font-family="Roboto" font-size="13px" font-style="normal" font-weight="normal" text-decoration="none" x="845" y="716.5">+añadirCliente(nombre, apellido, sexo, email, telefono,</text><text fill="#000000" stroke="none" font-family="Roboto" font-size="13px" font-style="normal" font-weight="normal" text-decoration="none" x="845" y="729">direccion, noDocumento, FechaNacimiento)</text></g></g><g transform="translate(-270,-278) scale(1,1)"><g><path fill="none" stroke="none"/><text fill="#000000" stroke="none" font-family="Roboto" font-size="13px" font-style="normal" font-weight="normal" text-decoration="none" x="845" y="744">+eliminarCliente(idCliente)</text></g></g><g transform="translate(-270,-278) scale(1,1)"><rect fill="#C0C0C0" stroke="none" x="1463" y="1047" width="368" height="184" opacity="0.2"/></g><g transform="translate(-270,-278) scale(1,1)"><rect fill="#eaf8ff" stroke="none" x="1456" y="1040" width="368" height="184"/></g><g transform="translate(-270,-278) scale(1,1)"><path fill="none" stroke="#353535" d="M 1456 1040 L 1824 1040 L 1824 1224 L 1456 1224 L 1456 1040 Z Z" stroke-miterlimit="10"/></g><g transform="translate(-270,-278) scale(1,1)"><path fill="none" stroke="#353535" d="M 1456 1065 L 1824 1065" stroke-miterlimit="10"/></g><g transform="translate(-270,-278) scale(1,1)"><path fill="none" stroke="#353535" d="M 1456 1103 L 1824 1103" stroke-miterlimit="10"/></g><g transform="translate(-270,-278) scale(1,1)"><g><path fill="none" stroke="none"/><text fill="#000000" stroke="none" font-family="Roboto" font-size="13px" font-style="normal" font-weight="bold" text-decoration="none" x="1610.99755859375" y="1058">Empleado</text></g></g><g transform="translate(-270,-278) scale(1,1)"><g><path fill="none" stroke="none"/><text fill="#000000" stroke="none" font-family="Roboto" font-size="13px" font-style="normal" font-weight="normal" text-decoration="none" x="1461" y="1081">+cargo: String</text></g></g><g transform="translate(-270,-278) scale(1,1)"><g><path fill="none" stroke="none"/><text fill="#000000" stroke="none" font-family="Roboto" font-size="13px" font-style="normal" font-weight="normal" text-decoration="none" x="1461" y="1096">+estado: String</text></g></g><g transform="translate(-270,-278) scale(1,1)"><g><path fill="none" stroke="none"/><text fill="#000000" stroke="none" font-family="Roboto" font-size="13px" font-style="normal" font-weight="normal" text-decoration="none" x="1461" y="1119.5">+añadirEmpleado(nombre, apellido, cargo, sexo, email,</text><text fill="#000000" stroke="none" font-family="Roboto" font-size="13px" font-style="normal" font-weight="normal" text-decoration="none" x="1461" y="1132">telefono, direccion, noDocumento, FechaNacimientoin</text><text fill="#000000" stroke="none" font-family="Roboto" font-size="13px" font-style="normal" font-weight="normal" text-decoration="none" x="1461" y="1145">nombre, apellido, sexo, email, telefono, direccion,</text><text fill="#000000" stroke="none" font-family="Roboto" font-size="13px" font-style="normal" font-weight="normal" text-decoration="none" x="1461" y="1158">noDocumento, FechaNacimiento)</text></g></g><g transform="translate(-270,-278) scale(1,1)"><g><path fill="none" stroke="none"/><text fill="#000000" stroke="none" font-family="Roboto" font-size="13px" font-style="normal" font-weight="normal" text-decoration="none" x="1461" y="1173">+eliminarEmpleado(id)</text></g></g><g transform="translate(-270,-278) scale(1,1)"><g><path fill="none" stroke="none"/><text fill="#000000" stroke="none" font-family="Roboto" font-size="13px" font-style="normal" font-weight="normal" text-decoration="none" x="1461" y="1188">+consEmpleados()</text></g></g><g transform="translate(-270,-278) scale(1,1)"><g><path fill="none" stroke="none"/><text fill="#000000" stroke="none" font-family="Roboto" font-size="13px" font-style="normal" font-weight="normal" text-decoration="none" x="1461" y="1203">+consEmpleadosPorCargo(cargo)</text></g></g><g transform="translate(-270,-278) scale(1,1)"><g><path fill="none" stroke="none"/><text fill="#000000" stroke="none" font-family="Roboto" font-size="13px" font-style="normal" font-weight="normal" text-decoration="none" x="1461" y="1218">+modEstado(id)</text></g></g><g transform="translate(-270,-278) scale(1,1)"><rect fill="#C0C0C0" stroke="none" x="327" y="1015" width="321.05078125" height="250" opacity="0.2"/></g><g transform="translate(-270,-278) scale(1,1)"><rect fill="#eaf8ff" stroke="none" x="320" y="1008" width="321.05078125" height="250"/></g><g transform="translate(-270,-278) scale(1,1)"><path fill="none" stroke="#353535" d="M 320 1008 L 641.05078125 1008 L 641.05078125 1258 L 320 1258 L 320 1008 Z Z" stroke-miterlimit="10"/></g><g transform="translate(-270,-278) scale(1,1)"><path fill="none" stroke="#353535" d="M 320 1033 L 641.05078125 1033" stroke-miterlimit="10"/></g><g transform="translate(-270,-278) scale(1,1)"><path fill="none" stroke="#353535" d="M 320 1161 L 641.05078125 1161" stroke-miterlimit="10"/></g><g transform="translate(-270,-278) scale(1,1)"><g><path fill="none" stroke="none"/><text fill="#000000" stroke="none" font-family="Roboto" font-size="13px" font-style="normal" font-weight="bold" text-decoration="none" x="460.13671875" y="1026">Pedido</text></g></g><g transform="translate(-270,-278) scale(1,1)"><g><path fill="none" stroke="none"/><text fill="#000000" stroke="none" font-family="Roboto" font-size="13px" font-style="normal" font-weight="normal" text-decoration="none" x="325" y="1049">+estadoPedido: String</text></g></g><g transform="translate(-270,-278) scale(1,1)"><g><path fill="none" stroke="none"/><text fill="#000000" stroke="none" font-family="Roboto" font-size="13px" font-style="normal" font-weight="normal" text-decoration="none" x="325" y="1064">+fechaPedido: String</text></g></g><g transform="translate(-270,-278) scale(1,1)"><g><path fill="none" stroke="none"/><text fill="#000000" stroke="none" font-family="Roboto" font-size="13px" font-style="normal" font-weight="normal" text-decoration="none" x="325" y="1079">+id: String</text></g></g><g transform="translate(-270,-278) scale(1,1)"><g><path fill="none" stroke="none"/><text fill="#000000" stroke="none" font-family="Roboto" font-size="13px" font-style="normal" font-weight="normal" text-decoration="none" x="325" y="1094">+FechaEnvio: String</text></g></g><g transform="translate(-270,-278) scale(1,1)"><g><path fill="none" stroke="none"/><text fill="#000000" stroke="none" font-family="Roboto" font-size="13px" font-style="normal" font-weight="normal" text-decoration="none" x="325" y="1109">+empresaEnvio: String</text></g></g><g transform="translate(-270,-278) scale(1,1)"><g><path fill="none" stroke="none"/><text fill="#000000" stroke="none" font-family="Roboto" font-size="13px" font-style="normal" font-weight="normal" text-decoration="none" x="325" y="1124">+noGuia: String</text></g></g><g transform="translate(-270,-278) scale(1,1)"><g><path fill="none" stroke="none"/><text fill="#000000" stroke="none" font-family="Roboto" font-size="13px" font-style="normal" font-weight="normal" text-decoration="none" x="325" y="1139">+estado: String</text></g></g><g transform="translate(-270,-278) scale(1,1)"><g><path fill="none" stroke="none"/><text fill="#000000" stroke="none" font-family="Roboto" font-size="13px" font-style="normal" font-weight="normal" text-decoration="none" x="325" y="1154">+idEnvio: String</text></g></g><g transform="translate(-270,-278) scale(1,1)"><g><path fill="none" stroke="none"/><text fill="#000000" stroke="none" font-family="Roboto" font-size="13px" font-style="normal" font-weight="normal" text-decoration="none" x="325" y="1177">+cambiarEstado(id)</text></g></g><g transform="translate(-270,-278) scale(1,1)"><g><path fill="none" stroke="none"/><text fill="#000000" stroke="none" font-family="Roboto" font-size="13px" font-style="normal" font-weight="normal" text-decoration="none" x="325" y="1192">+consPedidos()</text></g></g><g transform="translate(-270,-278) scale(1,1)"><g><path fill="none" stroke="none"/><text fill="#000000" stroke="none" font-family="Roboto" font-size="13px" font-style="normal" font-weight="normal" text-decoration="none" x="325" y="1207">+consPorFechas(fechaInicial, fechaFinal)</text></g></g><g transform="translate(-270,-278) scale(1,1)"><g><path fill="none" stroke="none"/><text fill="#000000" stroke="none" font-family="Roboto" font-size="13px" font-style="normal" font-weight="normal" text-decoration="none" x="325" y="1222">+eliminarpedido(id)</text></g></g><g transform="translate(-270,-278) scale(1,1)"><g><path fill="none" stroke="none"/><text fill="#000000" stroke="none" font-family="Roboto" font-size="13px" font-style="normal" font-weight="normal" text-decoration="none" x="325" y="1237">+crearPedido(fechaPedido, estadoPedido)</text></g></g><g transform="translate(-270,-278) scale(1,1)"><g><path fill="none" stroke="none"/><text fill="#000000" stroke="none" font-family="Roboto" font-size="13px" font-style="normal" font-weight="normal" text-decoration="none" x="325" y="1252">+consPersonalACargo()</text></g></g><g transform="translate(-270,-278) scale(1,1)"><rect fill="#C0C0C0" stroke="none" x="287" y="295" width="432.03955078125" height="331" opacity="0.2"/></g><g transform="translate(-270,-278) scale(1,1)"><rect fill="#eaf8ff" stroke="none" x="280" y="288" width="432.03955078125" height="331"/></g><g transform="translate(-270,-278) scale(1,1)"><path fill="none" stroke="#353535" d="M 280 288 L 712.03955078125 288 L 712.03955078125 619 L 280 619 L 280 288 Z Z" stroke-miterlimit="10"/></g><g transform="translate(-270,-278) scale(1,1)"><path fill="none" stroke="#353535" d="M 280 313 L 712.03955078125 313" stroke-miterlimit="10"/></g><g transform="translate(-270,-278) scale(1,1)"><path fill="none" stroke="#353535" d="M 280 426 L 712.03955078125 426" stroke-miterlimit="10"/></g><g transform="translate(-270,-278) scale(1,1)"><g><path fill="none" stroke="none"/><text fill="#000000" stroke="none" font-family="Roboto" font-size="13px" font-style="normal" font-weight="bold" text-decoration="none" x="469.429443359375" y="306">Producto</text></g></g><g transform="translate(-270,-278) scale(1,1)"><g><path fill="none" stroke="none"/><text fill="#000000" stroke="none" font-family="Roboto" font-size="13px" font-style="normal" font-weight="normal" text-decoration="none" x="285" y="329">+nombre: String</text></g></g><g transform="translate(-270,-278) scale(1,1)"><g><path fill="none" stroke="none"/><text fill="#000000" stroke="none" font-family="Roboto" font-size="13px" font-style="normal" font-weight="normal" text-decoration="none" x="285" y="344">+categoria: String</text></g></g><g transform="translate(-270,-278) scale(1,1)"><g><path fill="none" stroke="none"/><text fill="#000000" stroke="none" font-family="Roboto" font-size="13px" font-style="normal" font-weight="normal" text-decoration="none" x="285" y="359">+marca: String</text></g></g><g transform="translate(-270,-278) scale(1,1)"><g><path fill="none" stroke="none"/><text fill="#000000" stroke="none" font-family="Roboto" font-size="13px" font-style="normal" font-weight="normal" text-decoration="none" x="285" y="374">+precio: float</text></g></g><g transform="translate(-270,-278) scale(1,1)"><g><path fill="none" stroke="none"/><text fill="#000000" stroke="none" font-family="Roboto" font-size="13px" font-style="normal" font-weight="normal" text-decoration="none" x="285" y="389">+cantidad: int</text></g></g><g transform="translate(-270,-278) scale(1,1)"><g><path fill="none" stroke="none"/><text fill="#000000" stroke="none" font-family="Roboto" font-size="13px" font-style="normal" font-weight="normal" text-decoration="none" x="285" y="404">+id: String</text></g></g><g transform="translate(-270,-278) scale(1,1)"><g><path fill="none" stroke="none"/><text fill="#000000" stroke="none" font-family="Roboto" font-size="13px" font-style="normal" font-weight="normal" text-decoration="none" x="285" y="419">+proveedor: String</text></g></g><g transform="translate(-270,-278) scale(1,1)"><g><path fill="none" stroke="none"/><text fill="#000000" stroke="none" font-family="Roboto" font-size="13px" font-style="normal" font-weight="normal" text-decoration="none" x="285" y="442">+consProductos()</text></g></g><g transform="translate(-270,-278) scale(1,1)"><g><path fill="none" stroke="none"/><text fill="#000000" stroke="none" font-family="Roboto" font-size="13px" font-style="normal" font-weight="normal" text-decoration="none" x="285" y="457">+consPorIdProductos(id)</text></g></g><g transform="translate(-270,-278) scale(1,1)"><g><path fill="none" stroke="none"/><text fill="#000000" stroke="none" font-family="Roboto" font-size="13px" font-style="normal" font-weight="normal" text-decoration="none" x="285" y="472">+consPorCategoria(categ)</text></g></g><g transform="translate(-270,-278) scale(1,1)"><g><path fill="none" stroke="none"/><text fill="#000000" stroke="none" font-family="Roboto" font-size="13px" font-style="normal" font-weight="normal" text-decoration="none" x="285" y="487">+consPorMarca(marc)</text></g></g><g transform="translate(-270,-278) scale(1,1)"><g><path fill="none" stroke="none"/><text fill="#000000" stroke="none" font-family="Roboto" font-size="13px" font-style="normal" font-weight="normal" text-decoration="none" x="285" y="502">+consPorProveedor(proveed)</text></g></g><g transform="translate(-270,-278) scale(1,1)"><g><path fill="none" stroke="none"/><text fill="#000000" stroke="none" font-family="Roboto" font-size="13px" font-style="normal" font-weight="normal" text-decoration="none" x="285" y="517">+adicionarCantidad(cantid)</text></g></g><g transform="translate(-270,-278) scale(1,1)"><g><path fill="none" stroke="none"/><text fill="#000000" stroke="none" font-family="Roboto" font-size="13px" font-style="normal" font-weight="normal" text-decoration="none" x="285" y="532">+restarCantidad(cantid)</text></g></g><g transform="translate(-270,-278) scale(1,1)"><g><path fill="none" stroke="none"/><text fill="#000000" stroke="none" font-family="Roboto" font-size="13px" font-style="normal" font-weight="normal" text-decoration="none" x="285" y="547">+cambiarPrecio(nuevoPrecio)</text></g></g><g transform="translate(-270,-278) scale(1,1)"><g><path fill="none" stroke="none"/><text fill="#000000" stroke="none" font-family="Roboto" font-size="13px" font-style="normal" font-weight="normal" text-decoration="none" x="285" y="562">+modEspecificaciones(nombre, categoria, marca)</text></g></g><g transform="translate(-270,-278) scale(1,1)"><g><path fill="none" stroke="none"/><text fill="#000000" stroke="none" font-family="Roboto" font-size="13px" font-style="normal" font-weight="normal" text-decoration="none" x="285" y="577">+eliminarProducto(id)</text></g></g><g transform="translate(-270,-278) scale(1,1)"><g><path fill="none" stroke="none"/><text fill="#000000" stroke="none" font-family="Roboto" font-size="13px" font-style="normal" font-weight="normal" text-decoration="none" x="285" y="592">+crearProducto(nombre, categoria, marca, precio, cantidad, id, proveedor)</text></g></g><g transform="translate(-270,-278) scale(1,1)"><path fill="none" stroke="#353535" d="M 1177 686 L 1319 685" stroke-miterlimit="10"/></g><g transform="translate(-270,-278) scale(1,1)"><path fill="#FFFFFF" stroke="none" d="M 1298.734441779306 693.5619594722039 L 1319 685 L 1298.6158667545767 676.7243059606561"/></g><g transform="translate(-270,-278) scale(1,1)"><path fill="none" stroke="#353535" d="M 1298.734441779306 693.5619594722039 L 1319 685 L 1298.6158667545767 676.7243059606561 L 1298.734441779306 693.5619594722039" stroke-miterlimit="10"/></g><g transform="translate(-270,-278) scale(1,1)"><path fill="none" stroke="#353535" d="M 1593 1039 L 1477 809" stroke-miterlimit="10"/></g><g transform="translate(-270,-278) scale(1,1)"><path fill="#FFFFFF" stroke="none" d="M 1493.669936654124 823.3566434777595 L 1477 809 L 1478.6357452918799 830.9391052082826"/></g><g transform="translate(-270,-278) scale(1,1)"><path fill="none" stroke="#353535" d="M 1493.669936654124 823.3566434777595 L 1477 809 L 1478.6357452918799 830.9391052082826 L 1493.669936654124 823.3566434777595" stroke-miterlimit="10"/></g><g transform="translate(-270,-278) scale(1,1)"><rect fill="#C0C0C0" stroke="none" x="887" y="879" width="258.640625" height="190" opacity="0.2"/></g><g transform="translate(-270,-278) scale(1,1)"><rect fill="#eaf8ff" stroke="none" x="880" y="872" width="258.640625" height="190"/></g><g transform="translate(-270,-278) scale(1,1)"><path fill="none" stroke="#353535" d="M 880 872 L 1138.640625 872 L 1138.640625 1062 L 880 1062 L 880 872 Z Z" stroke-miterlimit="10"/></g><g transform="translate(-270,-278) scale(1,1)"><path fill="none" stroke="#353535" d="M 880 897 L 1138.640625 897" stroke-miterlimit="10"/></g><g transform="translate(-270,-278) scale(1,1)"><path fill="none" stroke="#353535" d="M 880 980 L 1138.640625 980" stroke-miterlimit="10"/></g><g transform="translate(-270,-278) scale(1,1)"><g><path fill="none" stroke="none"/><text fill="#000000" stroke="none" font-family="Roboto" font-size="13px" font-style="normal" font-weight="bold" text-decoration="none" x="968.730224609375" y="890">OrdenCompra</text></g></g><g transform="translate(-270,-278) scale(1,1)"><g><path fill="none" stroke="none"/><text fill="#000000" stroke="none" font-family="Roboto" font-size="13px" font-style="normal" font-weight="normal" text-decoration="none" x="885" y="913">+fechaOrden: String</text></g></g><g transform="translate(-270,-278) scale(1,1)"><g><path fill="none" stroke="none"/><text fill="#000000" stroke="none" font-family="Roboto" font-size="13px" font-style="normal" font-weight="normal" text-decoration="none" x="885" y="928">+estado: String</text></g></g><g transform="translate(-270,-278) scale(1,1)"><g><path fill="none" stroke="none"/><text fill="#000000" stroke="none" font-family="Roboto" font-size="13px" font-style="normal" font-weight="normal" text-decoration="none" x="885" y="943">+metodoPago: String</text></g></g><g transform="translate(-270,-278) scale(1,1)"><g><path fill="none" stroke="none"/><text fill="#000000" stroke="none" font-family="Roboto" font-size="13px" font-style="normal" font-weight="normal" text-decoration="none" x="885" y="958">+fechaPago: String</text></g></g><g transform="translate(-270,-278) scale(1,1)"><g><path fill="none" stroke="none"/><text fill="#000000" stroke="none" font-family="Roboto" font-size="13px" font-style="normal" font-weight="normal" text-decoration="none" x="885" y="973">+valorTotal: int</text></g></g><g transform="translate(-270,-278) scale(1,1)"><g><path fill="none" stroke="none"/><text fill="#000000" stroke="none" font-family="Roboto" font-size="13px" font-style="normal" font-weight="normal" text-decoration="none" x="885" y="996">+consPorFechas(fInicial, fFinal)</text></g></g><g transform="translate(-270,-278) scale(1,1)"><g><path fill="none" stroke="none"/><text fill="#000000" stroke="none" font-family="Roboto" font-size="13px" font-style="normal" font-weight="normal" text-decoration="none" x="885" y="1011">+consOrdenCompra()</text></g></g><g transform="translate(-270,-278) scale(1,1)"><g><path fill="none" stroke="none"/><text fill="#000000" stroke="none" font-family="Roboto" font-size="13px" font-style="normal" font-weight="normal" text-decoration="none" x="885" y="1026">+consPorFecha(fech)</text></g></g><g transform="translate(-270,-278) scale(1,1)"><g><path fill="none" stroke="none"/><text fill="#000000" stroke="none" font-family="Roboto" font-size="13px" font-style="normal" font-weight="normal" text-decoration="none" x="885" y="1041">+consPorMedioPago(mpago)</text></g></g><g transform="translate(-270,-278) scale(1,1)"><g><path fill="none" stroke="none"/><text fill="#000000" stroke="none" font-family="Roboto" font-size="13px" font-style="normal" font-weight="normal" text-decoration="none" x="885" y="1056">+consPorValores(vInicial, fValor)</text></g></g><g transform="translate(-270,-278) scale(1,1)"><path fill="none" stroke="#353535" d="M 1008 784 L 1009 871" stroke-miterlimit="10"/></g><g transform="translate(-270,-278) scale(1,1)"><g><path fill="none" stroke="none"/><text fill="#000000" stroke="none" font-family="Arial" font-size="13px" font-style="normal" font-weight="normal" text-decoration="none" x="991.5" y="810">1</text></g></g><g transform="translate(-270,-278) scale(1,1)"><g><path fill="none" stroke="none"/><text fill="#000000" stroke="none" font-family="Arial" font-size="13px" font-style="normal" font-weight="normal" text-decoration="none" x="986.5" y="854">0..*</text></g></g><g transform="translate(-270,-278) scale(1,1)"><path fill="none" stroke="#353535" d="M 879 1008 L 642 1082" stroke-miterlimit="10"/></g><g transform="translate(-270,-278) scale(1,1)"><path fill="none" stroke="#353535" d="M 650.4461692495728 1074.9528569613233 L 642 1082 L 652.9554261820622 1082.9892609207823" stroke-miterlimit="10"/></g><g transform="translate(-270,-278) scale(1,1)"><rect fill="#C0C0C0" stroke="none" x="367" y="791" width="219.63427734375" height="127" opacity="0.2"/></g><g transform="translate(-270,-278) scale(1,1)"><rect fill="#eaf8ff" stroke="none" x="360" y="784" width="219.63427734375" height="127"/></g><g transform="translate(-270,-278) scale(1,1)"><path fill="none" stroke="#353535" d="M 360 784 L 579.63427734375 784 L 579.63427734375 911 L 360 911 L 360 784 Z Z" stroke-miterlimit="10"/></g><g transform="translate(-270,-278) scale(1,1)"><path fill="none" stroke="#353535" d="M 360 809 L 579.63427734375 809" stroke-miterlimit="10"/></g><g transform="translate(-270,-278) scale(1,1)"><path fill="none" stroke="#353535" d="M 360 847 L 579.63427734375 847" stroke-miterlimit="10"/></g><g transform="translate(-270,-278) scale(1,1)"><g><path fill="none" stroke="none"/><text fill="#000000" stroke="none" font-family="Roboto" font-size="13px" font-style="normal" font-weight="bold" text-decoration="none" x="420.029296875" y="802">productosPedido</text></g></g><g transform="translate(-270,-278) scale(1,1)"><g><path fill="none" stroke="none"/><text fill="#000000" stroke="none" font-family="Roboto" font-size="13px" font-style="normal" font-weight="normal" text-decoration="none" x="365" y="825">+cantidad: int</text></g></g><g transform="translate(-270,-278) scale(1,1)"><g><path fill="none" stroke="none"/><text fill="#000000" stroke="none" font-family="Roboto" font-size="13px" font-style="normal" font-weight="normal" text-decoration="none" x="365" y="840">+producto: String</text></g></g><g transform="translate(-270,-278) scale(1,1)"><g><path fill="none" stroke="none"/><text fill="#000000" stroke="none" font-family="Roboto" font-size="13px" font-style="normal" font-weight="normal" text-decoration="none" x="365" y="863">+consultarProductosP()</text></g></g><g transform="translate(-270,-278) scale(1,1)"><g><path fill="none" stroke="none"/><text fill="#000000" stroke="none" font-family="Roboto" font-size="13px" font-style="normal" font-weight="normal" text-decoration="none" x="365" y="878">+adicionarProducP(cantidad)</text></g></g><g transform="translate(-270,-278) scale(1,1)"><g><path fill="none" stroke="none"/><text fill="#000000" stroke="none" font-family="Roboto" font-size="13px" font-style="normal" font-weight="normal" text-decoration="none" x="365" y="893">+restarProductP(cantid)</text></g></g><g transform="translate(-270,-278) scale(1,1)"><path fill="none" stroke="#353535" d="M 642 1082 L 879 1008" stroke-miterlimit="10"/></g><g transform="translate(-270,-278) scale(1,1)"><g><path fill="none" stroke="none"/><text fill="#000000" stroke="none" font-family="Arial" font-size="13px" font-style="normal" font-weight="normal" text-decoration="none" x="656.5" y="1092">1..*</text></g></g><g transform="translate(-270,-278) scale(1,1)"><g><path fill="none" stroke="none"/><text fill="#000000" stroke="none" font-family="Arial" font-size="13px" font-style="normal" font-weight="normal" text-decoration="none" x="858.5" y="1031">1</text></g></g><g transform="translate(-270,-278) scale(1,1)"><path fill="none" stroke="#353535" d="M 472 912 L 475 1007" stroke-miterlimit="10" stroke-dasharray="3"/></g><g transform="translate(-270,-278) scale(1,1)"><path fill="none" stroke="#353535" d="M 485 620 L 473 783" stroke-miterlimit="10"/></g><g transform="translate(-270,-278) scale(1,1)"><g><path fill="none" stroke="none"/><text fill="#000000" stroke="none" font-family="Arial" font-size="13px" font-style="normal" font-weight="normal" text-decoration="none" x="466.5" y="645">1</text></g></g><g transform="translate(-270,-278) scale(1,1)"><g><path fill="none" stroke="none"/><text fill="#000000" stroke="none" font-family="Arial" font-size="13px" font-style="normal" font-weight="normal" text-decoration="none" x="452.5" y="765">0..*</text></g></g><g transform="translate(-270,-278) scale(1,1)"><rect fill="#C0C0C0" stroke="none" x="631" y="791" width="172.82666015625" height="115" opacity="0.2"/></g><g transform="translate(-270,-278) scale(1,1)"><rect fill="#eaf8ff" stroke="none" x="624" y="784" width="172.82666015625" height="115"/></g><g transform="translate(-270,-278) scale(1,1)"><path fill="none" stroke="#353535" d="M 624 784 L 796.82666015625 784 L 796.82666015625 899 L 624 899 L 624 784 Z Z" stroke-miterlimit="10"/></g><g transform="translate(-270,-278) scale(1,1)"><path fill="none" stroke="#353535" d="M 624 809 L 796.82666015625 809" stroke-miterlimit="10"/></g><g transform="translate(-270,-278) scale(1,1)"><path fill="none" stroke="#353535" d="M 624 862 L 796.82666015625 862" stroke-miterlimit="10"/></g><g transform="translate(-270,-278) scale(1,1)"><g><path fill="none" stroke="none"/><text fill="#000000" stroke="none" font-family="Roboto" font-size="13px" font-style="normal" font-weight="bold" text-decoration="none" x="640.424072265625" y="802">productosOrdenCompra</text></g></g><g transform="translate(-270,-278) scale(1,1)"><g><path fill="none" stroke="none"/><text fill="#000000" stroke="none" font-family="Roboto" font-size="13px" font-style="normal" font-weight="normal" text-decoration="none" x="629" y="825">+producto: String</text></g></g><g transform="translate(-270,-278) scale(1,1)"><g><path fill="none" stroke="none"/><text fill="#000000" stroke="none" font-family="Roboto" font-size="13px" font-style="normal" font-weight="normal" text-decoration="none" x="629" y="840">+cantidad: int</text></g></g><g transform="translate(-270,-278) scale(1,1)"><g><path fill="none" stroke="none"/><text fill="#000000" stroke="none" font-family="Roboto" font-size="13px" font-style="normal" font-weight="normal" text-decoration="none" x="629" y="855">+subtotal: float</text></g></g><g transform="translate(-270,-278) scale(1,1)"><g><path fill="none" stroke="none"/><text fill="#000000" stroke="none" font-family="Roboto" font-size="13px" font-style="normal" font-weight="normal" text-decoration="none" x="629" y="878">+consultarProductos()</text></g></g><g transform="translate(-270,-278) scale(1,1)"><path fill="none" stroke="#353535" d="M 798 878 L 879 912" stroke-miterlimit="10" stroke-dasharray="3"/></g><g transform="translate(-270,-278) scale(1,1)"><path fill="none" stroke="#353535" d="M 868.0001224791716 911.9480911686156 L 879 912 L 871.2586170994762 904.1852069261255" stroke-miterlimit="10"/></g><g transform="translate(-270,-278) scale(1,1)"><path fill="none" stroke="#353535" d="M 588 620 L 678 783" stroke-miterlimit="10"/></g><g transform="translate(-270,-278) scale(1,1)"><g><path fill="none" stroke="none"/><text fill="#000000" stroke="none" font-family="Arial" font-size="13px" font-style="normal" font-weight="normal" text-decoration="none" x="583.5" y="649">1</text></g></g><g transform="translate(-270,-278) scale(1,1)"><g><path fill="none" stroke="none"/><text fill="#000000" stroke="none" font-family="Arial" font-size="13px" font-style="normal" font-weight="normal" text-decoration="none" x="646.5" y="775">0..*</text></g></g><g transform="translate(-270,-278) scale(1,1)"><path fill="none" stroke="#353535" d="M 642 1133 L 1455 1132" stroke-miterlimit="10"/></g><g transform="translate(-270,-278) scale(1,1)"><g><path fill="none" stroke="none"/><text fill="#000000" stroke="none" font-family="Arial" font-size="13px" font-style="normal" font-weight="normal" text-decoration="none" x="653.58544921875" y="1150">0..*</text></g></g><g transform="translate(-270,-278) scale(1,1)"><g><path fill="none" stroke="none"/><text fill="#000000" stroke="none" font-family="Arial" font-size="13px" font-style="normal" font-weight="normal" text-decoration="none" x="1429.5" y="1149">1</text></g></g><g transform="translate(-270,-278) scale(1,1)"><rect fill="#C0C0C0" stroke="none" x="1079" y="375" width="190.7587890625" height="160" opacity="0.2"/></g><g transform="translate(-270,-278) scale(1,1)"><rect fill="#eaf8ff" stroke="none" x="1072" y="368" width="190.7587890625" height="160"/></g><g transform="translate(-270,-278) scale(1,1)"><path fill="none" stroke="#353535" d="M 1072 368 L 1262.7587890625 368 L 1262.7587890625 528 L 1072 528 L 1072 368 Z Z" stroke-miterlimit="10"/></g><g transform="translate(-270,-278) scale(1,1)"><path fill="none" stroke="#353535" d="M 1072 393 L 1262.7587890625 393" stroke-miterlimit="10"/></g><g transform="translate(-270,-278) scale(1,1)"><path fill="none" stroke="#353535" d="M 1072 461 L 1262.7587890625 461" stroke-miterlimit="10"/></g><g transform="translate(-270,-278) scale(1,1)"><g><path fill="none" stroke="none"/><text fill="#000000" stroke="none" font-family="Arial" font-size="13px" font-style="normal" font-weight="bold" text-decoration="none" x="1115.376220703125" y="386">ingresoProducto</text></g></g><g transform="translate(-270,-278) scale(1,1)"><g><path fill="none" stroke="none"/><text fill="#000000" stroke="none" font-family="Arial" font-size="13px" font-style="normal" font-weight="normal" text-decoration="none" x="1077" y="409">+fechaIngreso: String</text></g></g><g transform="translate(-270,-278) scale(1,1)"><g><path fill="none" stroke="none"/><text fill="#000000" stroke="none" font-family="Arial" font-size="13px" font-style="normal" font-weight="normal" text-decoration="none" x="1077" y="424">+id: String</text></g></g><g transform="translate(-270,-278) scale(1,1)"><g><path fill="none" stroke="none"/><text fill="#000000" stroke="none" font-family="Arial" font-size="13px" font-style="normal" font-weight="normal" text-decoration="none" x="1077" y="439">+empleadoResponsable: String</text></g></g><g transform="translate(-270,-278) scale(1,1)"><g><path fill="none" stroke="none"/><text fill="#000000" stroke="none" font-family="Arial" font-size="13px" font-style="normal" font-weight="normal" text-decoration="none" x="1077" y="454">+factSoporte: String</text></g></g><g transform="translate(-270,-278) scale(1,1)"><g><path fill="none" stroke="none"/><text fill="#000000" stroke="none" font-family="Arial" font-size="13px" font-style="normal" font-weight="normal" text-decoration="none" x="1077" y="477">+consIngresos()</text></g></g><g transform="translate(-270,-278) scale(1,1)"><g><path fill="none" stroke="none"/><text fill="#000000" stroke="none" font-family="Arial" font-size="13px" font-style="normal" font-weight="normal" text-decoration="none" x="1077" y="492">+consPorId(id)</text></g></g><g transform="translate(-270,-278) scale(1,1)"><g><path fill="none" stroke="none"/><text fill="#000000" stroke="none" font-family="Arial" font-size="13px" font-style="normal" font-weight="normal" text-decoration="none" x="1077" y="507">+consPorFecha(fInicial, fFinal)</text></g></g><g transform="translate(-270,-278) scale(1,1)"><g><path fill="none" stroke="none"/><text fill="#000000" stroke="none" font-family="Arial" font-size="13px" font-style="normal" font-weight="normal" text-decoration="none" x="1077" y="522">+Operation1()</text></g></g><g transform="translate(-270,-278) scale(1,1)"><path fill="none" stroke="#353535" d="M 713 451 L 1071 449" stroke-miterlimit="10"/></g><g transform="translate(-270,-278) scale(1,1)"><rect fill="#C0C0C0" stroke="none" x="823" y="295" width="154.6025390625" height="96" opacity="0.2"/></g><g transform="translate(-270,-278) scale(1,1)"><rect fill="#eaf8ff" stroke="none" x="816" y="288" width="154.6025390625" height="96"/></g><g transform="translate(-270,-278) scale(1,1)"><path fill="none" stroke="#353535" d="M 816 288 L 970.6025390625 288 L 970.6025390625 384 L 816 384 L 816 288 Z Z" stroke-miterlimit="10"/></g><g transform="translate(-270,-278) scale(1,1)"><path fill="none" stroke="#353535" d="M 816 313 L 970.6025390625 313" stroke-miterlimit="10"/></g><g transform="translate(-270,-278) scale(1,1)"><path fill="none" stroke="#353535" d="M 816 351 L 970.6025390625 351" stroke-miterlimit="10"/></g><g transform="translate(-270,-278) scale(1,1)"><g><path fill="none" stroke="none"/><text fill="#000000" stroke="none" font-family="Arial" font-size="13px" font-style="normal" font-weight="bold" text-decoration="none" x="838.048095703125" y="306">productosIngreso</text></g></g><g transform="translate(-270,-278) scale(1,1)"><g><path fill="none" stroke="none"/><text fill="#000000" stroke="none" font-family="Arial" font-size="13px" font-style="normal" font-weight="normal" text-decoration="none" x="821" y="329">+cantidad: int</text></g></g><g transform="translate(-270,-278) scale(1,1)"><g><path fill="none" stroke="none"/><text fill="#000000" stroke="none" font-family="Arial" font-size="13px" font-style="normal" font-weight="normal" text-decoration="none" x="821" y="344">+id: String</text></g></g><g transform="translate(-270,-278) scale(1,1)"><g><path fill="none" stroke="none"/><text fill="#000000" stroke="none" font-family="Arial" font-size="13px" font-style="normal" font-weight="normal" text-decoration="none" x="821" y="367">+consProductosIngreso()</text></g></g><g transform="translate(-270,-278) scale(1,1)"><path fill="none" stroke="#353535" d="M 1071 449 L 713 451" stroke-miterlimit="10"/></g><g transform="translate(-270,-278) scale(1,1)"><g><path fill="none" stroke="none"/><text fill="#000000" stroke="none" font-family="Arial" font-size="13px" font-style="normal" font-weight="normal" text-decoration="none" x="1045.5" y="441">1</text></g></g><g transform="translate(-270,-278) scale(1,1)"><g><path fill="none" stroke="none"/><text fill="#000000" stroke="none" font-family="Arial" font-size="13px" font-style="normal" font-weight="normal" text-decoration="none" x="724.5" y="443">1..*</text></g></g><g transform="translate(-270,-278) scale(1,1)"><path fill="none" stroke="#353535" d="M 893 385 L 892 450" stroke-miterlimit="10" stroke-dasharray="3"/></g><g transform="translate(-270,-278) scale(1,1)"><path fill="none" stroke="#353535" d="M 1264 448 L 1632 448 L 1639 1039" stroke-miterlimit="10"/></g><g transform="translate(-270,-278) scale(1,1)"><g><path fill="none" stroke="none"/><text fill="#000000" stroke="none" font-family="Arial" font-size="13px" font-style="normal" font-weight="normal" text-decoration="none" x="1275.5" y="465">0..*</text></g></g><g transform="translate(-270,-278) scale(1,1)"><g><path fill="none" stroke="none"/><text fill="#000000" stroke="none" font-family="Arial" font-size="13px" font-style="normal" font-weight="normal" text-decoration="none" x="1622.5" y="1022">1</text></g></g></g></svg>